<?xml version="1.0" encoding="utf-8"?>
<!-- Generator: Adobe Illustrator 16.0.0, SVG Export Plug-In . SVG Version: 6.00 Build 0)  -->
<!DOCTYPE svg PUBLIC "-//W3C//DTD SVG 1.1//EN" "http://www.w3.org/Graphics/SVG/1.1/DTD/svg11.dtd">
<svg version="1.1" id="Capa_1" xmlns="http://www.w3.org/2000/svg" xmlns:xlink="http://www.w3.org/1999/xlink" x="0px" y="0px"
	 width="363px" height="126.506px" viewBox="0 0 363 126.506" enable-background="new 0 0 363 126.506" xml:space="preserve">
<g>
	<g>
		<path fill-rule="evenodd" clip-rule="evenodd" fill="#E6007E" d="M294.979,36.491c0.845,0.028,1.729-0.354,2.479-1.021
			c1.272-1.132,2.599-3.266,1.661-5.805c-0.638-1.731-0.985-3.532-1.211-5.361c-0.117-0.965-0.262-1.933-0.488-2.877
			c-0.297-1.235-1.117-2.008-2.334-2.383c-1.026-0.317-1.979-0.036-2.935,0.28c-2.583,0.856-5.147,1.771-7.754,2.549
			c-2.354,0.703-3.585,2.342-4.124,4.591c-0.327,1.364,0.125,2.542,1.25,3.402c0.392,0.3,0.84,0.549,1.297,0.738
			c1.108,0.459,2.271,0.729,3.468,0.852c2.438,0.248,2.525,0.306,4.177,2.171c0.167,0.187,0.328,0.379,0.5,0.563
			c0.417,0.448,0.814,0.916,1.261,1.333C292.942,36.189,293.778,36.595,294.979,36.491z M282.034,16.268
			c0,0.194-0.011,0.39,0.002,0.584c0.15,2.08,1.892,3.292,3.884,2.705c2.489-0.731,4.259-3.966,3.556-6.504
			c-0.532-1.933-2.368-2.789-4.201-1.923C283.114,12.15,282.162,13.957,282.034,16.268z M305.965,15.431
			c0-0.139,0.005-0.279,0-0.417c-0.113-2.331-2.049-3.594-4.221-2.757c-2.317,0.893-3.898,4.032-3.228,6.411
			c0.521,1.854,2.276,2.715,4.069,2C304.52,19.897,306.052,17.534,305.965,15.431z M308.336,24.816c0-0.11,0.003-0.223,0-0.334
			c-0.06-2.289-2.093-3.818-4.388-2.755c-2.221,1.026-3.61,3.669-3.136,6.087c0.389,1.978,2.157,2.967,4.05,2.264
			C306.861,29.333,308.339,27.098,308.336,24.816z"/>
	</g>
	<g>
		<path fill-rule="evenodd" clip-rule="evenodd" fill="#DEDC00" d="M352.009,64.251c-3.312,8.288-8.472,15.126-15.914,20.142
			c-4.166,2.805-8.751,4.599-13.709,5.432c-1.856,0.313-3.724,0.298-5.589,0.254c-3.648-0.085-7.184-0.813-10.602-2.075
			c-4.148-1.531-7.287-4.237-9.311-8.197c-0.1-0.196-0.219-0.385-0.346-0.608c-0.719,0.821-1.404,1.624-2.11,2.406
			c-1.687,1.869-3.497,3.604-5.626,4.97c-2.535,1.626-5.278,2.777-8.262,3.22c-1.938,0.288-3.889,0.226-5.77-0.487
			c-0.805-0.304-1.642-0.52-2.458-0.79c-3.507-1.16-6.054-3.457-7.863-6.632c-0.164-0.288-0.328-0.575-0.531-0.928
			c-0.166,0.207-0.309,0.359-0.421,0.533c-1.972,2.974-3.943,5.947-5.909,8.924c-0.647,0.98-1.475,1.721-2.598,2.137
			c-3.091,1.138-6.382-0.96-7.106-4.11c-0.255-1.112-0.519-2.222-0.796-3.327c-0.442-1.759-1.749-2.842-3.176-3.722
			c-0.999-0.615-2.231-0.645-3.407-0.675c-2.399-0.062-4.688,0.52-6.965,1.189c-4.734,1.391-9.129,3.528-13.35,6.047
			c-2.249,1.342-4.49,2.698-6.707,4.09c-2.045,1.281-4.716,0.939-6.487-0.895c-2.065-2.135-1.907-5.29,0.276-7.36
			c1.498-1.417,2.876-2.96,4.33-4.423c2.87-2.888,5.744-5.774,8.642-8.637c2.519-2.489,5.047-4.97,7.613-7.409
			c4.549-4.323,9.128-8.611,13.693-12.913c0.255-0.242,0.515-0.486,0.899-0.853c-4.43-0.193-8.395-1.44-12.137-3.567
			c-0.146,0.247-0.264,0.424-0.36,0.612c-2.774,5.497-5.556,10.991-8.311,16.498c-0.695,1.39-1.269,2.842-1.945,4.243
			c-1.801,3.714-4.641,6.43-8.201,8.443c-2.954,1.672-6.149,2.248-9.503,1.989c-0.993-0.075-1.974-0.33-2.959-0.503
			c-0.3-0.052-0.6-0.101-0.908-0.153c-0.534,0.611-1.031,1.208-1.559,1.781c-2.78,3.043-5.858,5.735-9.495,7.718
			c-2.602,1.417-5.394,2.262-8.375,2.284c-4.834,0.037-8.524-2.018-11.01-6.188c-0.097-0.164-0.204-0.323-0.344-0.544
			c-0.595,0.593-1.117,1.201-1.727,1.706c-1.762,1.455-3.538,2.902-5.698,3.756c-2.062,0.814-4.176,1.062-6.39,0.79
			c-1.508-0.184-2.963-0.49-4.341-1.119c-2.148-0.98-3.768-2.549-4.984-4.646c-0.75,0.743-1.463,1.471-2.196,2.174
			c-2.431,2.326-5.198,4.103-8.438,5.089c-2.833,0.861-5.565,0.633-8.295-0.55c-3.325-1.44-5.38-3.949-6.588-7.267
			c-0.161-0.444-0.341-0.881-0.514-1.32c-0.009-0.022-0.041-0.036-0.051-0.046c-1.172,1.027-2.315,2.087-3.521,3.071
			c-2.256,1.844-4.698,3.381-7.451,4.394c-7.186,2.649-15.054-0.937-17.734-7.699c-0.041-0.1-0.092-0.194-0.166-0.348
			c-0.232,0.141-0.447,0.255-0.643,0.395c-4.854,3.453-10.209,5.758-16.025,7.021c-2.532,0.552-5.083,0.939-7.67,1.137
			c-3.398,0.258-6.795,0.237-10.195,0.139c-1.722-0.051-3.206-0.666-4.375-1.955c-1.383-1.527-1.733-3.325-1.037-5.211
			c0.726-1.962,2.265-3.141,4.348-3.304c1.498-0.117,2.819-0.603,4.107-1.268c2.271-1.177,4.297-2.694,6.082-4.523
			c3.104-3.185,5.976-6.553,8.231-10.404c2.108-3.601,3.775-7.393,4.667-11.49c0.431-1.98,0.541-3.942-0.039-5.946
			c-0.611-2.118-2.009-3.247-4.053-3.764c-1.24-0.315-2.423-0.128-3.605,0.282c-2.385,0.829-4.415,2.24-6.314,3.854
			c-2.691,2.286-4.928,5.001-7.14,7.731c-5.338,6.581-9.865,13.695-13.98,21.095c-3.17,5.698-6.242,11.447-9.151,17.283
			c-3.52,7.057-6.754,14.243-9.863,21.49c-0.517,1.202-1.088,2.378-1.636,3.566c-1.665,3.607-6.279,3.802-8.75,0.661
			c-0.339-0.433-0.541-0.97-0.815-1.45c-0.103-0.183-0.234-0.349-0.352-0.521c0-0.669,0-1.338,0-2.008
			c0.091-0.103,0.218-0.188,0.266-0.308c3.967-9.907,8.521-19.558,12.775-29.337c4.546-10.447,9.044-20.912,13.554-31.375
			c2.558-5.934,5.097-11.876,7.639-17.817c0.753-1.761,2.019-2.964,3.905-3.325c2.193-0.418,3.932,0.505,5.231,2.224
			c0.984,1.301,1.205,2.789,0.686,4.36c-0.066,0.204-0.118,0.412-0.214,0.747c0.626-0.519,1.14-0.945,1.656-1.368
			c2.974-2.451,6.228-4.424,9.921-5.57c9.651-2.992,19.238,3.187,20.873,12.985c0.47,2.813,0.206,5.607-0.376,8.386
			c-1.17,5.576-3.501,10.673-6.394,15.538c-1.542,2.592-3.295,5.038-5.23,7.354c-0.159,0.191-0.311,0.389-0.578,0.724
			c0.378-0.121,0.606-0.178,0.823-0.266c3.762-1.508,7.178-3.567,10.099-6.402c1.426-1.385,2.667-2.923,3.706-4.617
			c0.129-0.213,0.243-0.442,0.319-0.679c2.201-6.75,5.644-12.837,9.915-18.472c3.011-3.974,6.429-7.56,10.428-10.564
			c2.791-2.095,5.846-3.639,9.264-4.457c2.491-0.598,4.972-0.548,7.462-0.084c3.647,0.679,6.986,2.07,9.875,4.434
			c1.933,1.579,3.677,3.333,4.805,5.611c0.248,0.498,0.563,0.963,0.851,1.439c2.291,3.799-0.903,7.169-3.562,7.549
			c-2.618,0.375-4.266-0.513-5.521-2.678c-0.466-0.805-1.159-1.478-1.69-2.25c-1.692-2.46-4.182-3.442-6.991-3.95
			c-1.95-0.352-3.688,0.121-5.39,0.987c-2.284,1.159-4.303,2.694-6.125,4.47c-4.985,4.855-8.943,10.449-11.853,16.774
			c-0.156,0.343-0.258,0.744-0.263,1.118c-0.01,0.885-0.209,1.71-0.584,2.501c-0.189,0.401-0.356,0.822-0.595,1.196
			c-0.666,1.036-0.963,2.182-1.069,3.389c-0.154,1.784-0.242,3.569,0.408,5.288c0.443,1.17,1.264,1.993,2.508,2.216
			c0.545,0.097,1.159-0.04,1.715-0.178c1.233-0.309,2.287-0.999,3.347-1.672c3.303-2.106,5.799-5.02,8.175-8.066
			c2.491-3.194,4.623-6.629,6.731-10.076c0.797-1.305,1.409-2.72,2.151-4.06c0.647-1.169,1.287-2.354,2.059-3.439
			c1.189-1.677,2.893-2.265,4.912-1.985c0.165,0.021,0.326,0.068,0.49,0.091c0.138,0.021,0.278,0.021,0.417,0.03
			c0.461,0.258,0.963,0.461,1.371,0.782c2.229,1.76,2.773,4.634,1.379,7.129c-0.53,0.949-1.061,1.897-1.604,2.837
			c-2.459,4.264-3.849,8.878-4.446,13.737c-0.209,1.693-0.173,3.396,0.39,5.047c0.368,1.076,1.113,1.467,2.211,1.111
			c1.084-0.349,1.973-1.024,2.829-1.74c2.416-2.023,4.401-4.436,6.116-7.055c1.356-2.073,2.554-4.25,3.815-6.384
			c0.111-0.19,0.201-0.401,0.256-0.615c1.096-4.103,2.736-8.007,4.328-11.929c1.62-3.981,3.627-7.774,5.635-11.565
			c1.328-2.512,2.68-5.011,4.022-7.516c1.097-2.044,3.811-3.121,6.052-2.343c1.81,0.628,3.203,1.733,3.579,3.73
			c0.278,1.467,0.054,2.87-0.732,4.185c-2.288,3.829-4.41,7.75-6.383,11.75c-1.752,3.549-3.432,7.126-4.748,10.866
			c-0.158,0.448-0.254,0.873-0.181,1.371c0.16,1.105-0.113,2.16-0.575,3.163c-0.153,0.33-0.3,0.663-0.484,0.976
			c-1.516,2.576-1.749,5.429-1.726,8.313c0.007,0.813,0.333,1.624,0.507,2.406c0.87,0.65,1.766,0.664,2.681,0.42
			c0.858-0.23,1.534-0.775,2.154-1.388c1.76-1.737,3.159-3.741,4.397-5.875c2.677-4.613,4.84-9.476,6.959-14.356
			c0.565-1.3,1.007-2.656,1.555-3.965c1.985-4.75,3.595-9.659,5.957-14.251c0.649-1.263,1.316-2.52,2.011-3.757
			c1.652-2.948,6.064-3.472,8.333-0.999c0.963,1.048,1.171,2.374,1.29,3.716c0.076,0.852-0.061,1.686-0.51,2.419
			c-1.712,2.794-2.877,5.845-4.167,8.836c-1.887,4.373-3.68,8.786-5.136,13.327c-0.902,2.813-1.693,5.654-2.193,8.57
			c-0.34,1.993-0.38,3.993-0.088,5.995c0.052,0.355,0.19,0.697,0.273,1.05c0.105,0.452,0.422,0.678,0.808,0.889
			c0.955,0.517,1.923,0.529,2.879,0.088c1.06-0.489,2.127-0.977,3.119-1.583c1.891-1.157,5.034-4.218,6.427-6.137
			c-0.208-0.419-0.429-0.865-0.65-1.309c-1.159-2.321-1.744-4.814-2.115-7.359c-0.356-2.433-0.455-4.887-0.324-7.342
			c0.269-5.046,1.195-9.952,3.309-14.58c1.359-2.981,3.169-5.634,5.822-7.632c1.601-1.203,3.338-2.107,5.323-2.495
			c5.369-1.053,11.35,1.467,12.794,8.3c0.456,2.153,0.394,4.318,0.088,6.487c-0.944,6.723-3.487,12.871-6.75,18.759
			c-0.632,1.141-1.244,2.296-1.947,3.594c0.757-0.21,1.288-0.535,1.775-0.915c0.658-0.518,1.297-1.059,1.902-1.633
			c0.297-0.282,0.551-0.636,0.736-1.002c4.683-9.307,9.356-18.621,14.025-27.937c0.88-1.752,2.289-2.772,4.209-3.069
			c1.777-0.272,3.259,0.309,4.351,1.736c1.436,1.876,3.301,3.12,5.501,3.91c1.956,0.705,3.976,1.118,6.05,1.093
			c2.582-0.028,5.072-0.609,7.491-1.513c4.157-1.551,7.928-3.794,11.529-6.353c0.776-0.554,1.598-0.979,2.568-1.131
			c2.604-0.407,5.272,1.586,5.727,4.126c0.332,1.864-0.134,3.502-1.512,4.802c-1.075,1.012-2.236,1.931-3.365,2.885
			c-5.814,4.915-11.494,9.98-17.057,15.179c-4.583,4.285-9.15,8.585-13.716,12.885c-0.204,0.192-0.332,0.465-0.496,0.697
			c-0.009-0.016-0.019-0.029-0.028-0.044c-0.012,0.011-0.022,0.022-0.034,0.034c0.019-0.005,0.037-0.009,0.055-0.012
			c1.44-0.136,2.878-0.32,4.32-0.399c3.519-0.19,6.867,0.435,9.962,2.202c1.736,0.993,3.297,2.186,4.517,3.789
			c0.066,0.088,0.109,0.195,0.205,0.37c0.228-0.289,0.372-0.446,0.489-0.621c3.585-5.281,7.175-10.56,10.74-15.855
			c0.509-0.756,0.944-1.577,1.312-2.414c1.796-4.096,4.021-7.954,6.507-11.664c1.316-1.968,2.692-3.897,4.077-5.821
			c1.435-1.991,4.06-2.549,6.179-1.314c2.023,1.181,3.114,2.905,2.9,5.315c-0.092,1.037-0.633,1.877-1.201,2.717
			c-1.689,2.493-3.433,4.952-4.995,7.52c-2.362,3.882-4.444,7.918-5.948,12.226c-0.514,1.474-0.958,2.966-1.151,4.524
			c-0.184,1.481-0.074,2.954,0.165,4.413c0.197,1.202,0.955,2.063,1.963,2.684c2.233,1.371,4.508,1.413,6.813,0.149
			c1.238-0.679,2.238-1.646,3.251-2.607c3.5-3.32,6.05-7.341,8.467-11.463c1.187-2.025,2.078-4.145,2.738-6.417
			c1.76-6.064,4.72-11.528,8.689-16.448c1.949-2.417,4.01-4.715,6.467-6.633c2.9-2.263,6.095-3.89,9.746-4.519
			c2.02-0.348,4.043-0.322,6.081-0.119c2.45,0.246,4.648,1.107,6.646,2.501c2.856,1.992,4.561,4.771,5.313,8.131
			c0.742,3.312,0.479,6.608-0.506,9.827c-2.14,6.997-6.188,12.606-12.354,16.618c-2.676,1.743-5.601,2.836-8.773,3.242
			c-3.21,0.411-6.347,0.27-9.268-1.312c-0.856-0.464-1.665-1.013-2.494-1.522c-0.259-0.159-0.515-0.32-0.878-0.543
			c-0.068,0.389-0.148,0.699-0.175,1.012c-0.168,1.922,0.167,3.798,0.728,5.606c0.584,1.888,1.852,3.321,3.675,4.127
			c2.202,0.972,4.525,1.55,6.932,1.728c5.348,0.391,10.112-1.249,14.427-4.289c4.977-3.511,8.521-8.21,11.021-13.721
			c0.52-1.146,1.172-2.141,2.212-2.869c2.354-1.644,5.033-0.944,6.639,0.838c0.687,0.761,1.097,1.655,1.384,2.622
			C352.009,63.023,352.009,63.637,352.009,64.251z M329.436,44.613c-0.021-0.267-0.057-0.738-0.096-1.21
			c-0.116-1.386-0.981-2.14-2.214-2.529c-1.489-0.47-2.993-0.545-4.521-0.111c-2.32,0.662-4.195,2.025-5.92,3.638
			c-2.005,1.876-3.677,4.032-5.275,6.254c-0.626,0.872-1.071,1.821-1.436,2.815c-0.772,2.11-0.335,3.954,1.322,5.457
			c0.943,0.858,2.056,1.468,3.318,1.65c1.074,0.155,2.161,0.012,3.228-0.263c1.493-0.385,2.735-1.187,3.924-2.139
			c2.559-2.049,4.703-4.43,6.104-7.423C328.754,48.87,329.414,46.93,329.436,44.613z M203.889,40.16
			c-0.984-0.077-1.581,0.413-2.124,0.99c-1.142,1.217-1.892,2.674-2.545,4.187c-1.985,4.594-2.276,9.424-2.001,14.333
			c0.004,0.082,0.078,0.159,0.128,0.254c0.088-0.082,0.14-0.109,0.165-0.152c1.78-3.148,3.58-6.286,4.755-9.731
			c0.7-2.053,1.448-4.093,1.675-6.27C204.066,42.586,204.107,41.395,203.889,40.16z"/>
	</g>
	<g>
		<path fill-rule="evenodd" clip-rule="evenodd" fill="#E6007E" d="M296.436,7.506c1.611,0.719,2.275,1.73,2.194,3.534
			c-0.096,2.129-1.074,3.767-2.92,4.86c-0.748,0.442-1.56,0.601-2.411,0.413c-1.203-0.267-2.063-1.296-2.23-2.624
			c-0.323-2.558,1.064-4.981,3.436-6.009c0.095-0.039,0.173-0.114,0.259-0.173C295.32,7.506,295.877,7.506,296.436,7.506z"/>
	</g>
	<g>
		<path fill-rule="evenodd" clip-rule="evenodd" fill="#E6007E" d="M294.979,36.491c-1.2,0.104-2.036-0.301-2.754-0.969
			c-0.446-0.417-0.844-0.885-1.261-1.333c-0.172-0.184-0.333-0.376-0.5-0.563c-1.651-1.865-1.739-1.923-4.177-2.171
			c-1.197-0.123-2.359-0.393-3.468-0.852c-0.457-0.188-0.905-0.438-1.297-0.738c-1.125-0.859-1.577-2.038-1.25-3.402
			c0.539-2.249,1.771-3.888,4.124-4.591c2.606-0.778,5.171-1.693,7.754-2.549c0.956-0.315,1.908-0.597,2.935-0.28
			c1.217,0.375,2.037,1.148,2.334,2.383c0.227,0.944,0.371,1.912,0.488,2.877c0.226,1.829,0.573,3.63,1.211,5.361
			c0.938,2.54-0.389,4.673-1.661,5.805C296.707,36.137,295.823,36.519,294.979,36.491z"/>
	</g>
	<g>
		<path fill-rule="evenodd" clip-rule="evenodd" fill="#E6007E" d="M282.034,16.268c0.128-2.311,1.08-4.118,3.24-5.138
			c1.833-0.866,3.669-0.009,4.201,1.923c0.703,2.538-1.066,5.772-3.556,6.504c-1.992,0.587-3.733-0.625-3.884-2.705
			C282.023,16.658,282.034,16.462,282.034,16.268z"/>
	</g>
	<g>
		<path fill-rule="evenodd" clip-rule="evenodd" fill="#E6007E" d="M305.965,15.431c0.087,2.103-1.445,4.466-3.379,5.237
			c-1.793,0.715-3.548-0.146-4.069-2c-0.671-2.379,0.91-5.519,3.228-6.411c2.172-0.837,4.107,0.426,4.221,2.757
			C305.97,15.152,305.965,15.292,305.965,15.431z"/>
	</g>
	<g>
		<path fill-rule="evenodd" clip-rule="evenodd" fill="#E6007E" d="M308.336,24.816c0.003,2.282-1.475,4.518-3.474,5.261
			c-1.893,0.703-3.661-0.286-4.05-2.264c-0.475-2.418,0.915-5.061,3.136-6.087c2.295-1.063,4.328,0.467,4.388,2.755
			C308.339,24.593,308.336,24.706,308.336,24.816z"/>
	</g>
	<g>
		<path fill-rule="evenodd" clip-rule="evenodd" fill="#DEDC00" d="M235.189,70.798c-0.018,0.003-0.036,0.007-0.055,0.012
			c0.012-0.012,0.022-0.023,0.034-0.034c0.01,0.015,0.02,0.028,0.028,0.044C235.197,70.823,235.189,70.798,235.189,70.798z"/>
	</g>
</g>
</svg>
